<?xml version="1.0" standalone="no"?>
<!DOCTYPE svg PUBLIC "-//W3C//DTD SVG 20010904//EN"
 "http://www.w3.org/TR/2001/REC-SVG-20010904/DTD/svg10.dtd">
<svg version="1.0" xmlns="http://www.w3.org/2000/svg"
 width="38.000000pt" height="38.000000pt" viewBox="0 0 38.000000 38.000000"
 preserveAspectRatio="xMidYMid meet">

<g transform="translate(0.000000,38.000000) scale(0.100000,-0.100000)"
fill="#000000" stroke="none">
<path d="M310 359 c0 -6 8 -8 19 -4 34 10 35 -16 2 -45 -41 -38 -39 -50 9 -50
22 0 40 5 40 10 0 6 -12 10 -27 10 l-27 0 27 28 c34 35 28 62 -14 62 -16 0
-29 -5 -29 -11z"/>
<path d="M53 334 c-36 -28 -41 -54 -20 -111 35 -94 146 -191 230 -200 41 -5
46 -3 71 29 35 47 33 59 -14 86 -43 24 -70 28 -87 11 -15 -15 -55 9 -78 45
-13 20 -14 28 -4 45 11 17 9 28 -11 70 -27 58 -41 62 -87 25z m77 -44 c10 -25
10 -32 -4 -45 -9 -9 -16 -19 -16 -22 0 -13 52 -73 81 -93 28 -21 31 -21 49 -5
20 18 42 15 77 -13 l23 -17 -24 -29 c-23 -29 -24 -30 -67 -17 -93 28 -187 124
-204 210 -7 31 -4 38 21 57 32 26 45 21 64 -26z"/>
<path d="M230 320 c8 -14 8 -26 0 -40 -11 -21 -1 -27 17 -9 8 8 13 8 17 0 4
-6 11 -11 17 -11 5 0 4 9 -3 20 -10 16 -10 24 0 40 13 21 3 27 -15 9 -8 -8
-13 -8 -17 0 -13 20 -27 12 -16 -9z"/>
</g>
</svg>
